<svg version="1.1" id="Layer_1" xmlns="http://www.w3.org/2000/svg" xmlns:xlink="http://www.w3.org/1999/xlink" x="0px" y="0px"
	 width="100%" viewBox="0 0 362 132" enable-background="new 0 0 362 132" xml:space="preserve">
<path fill="#31C5CA" opacity="1.000000" stroke="none" 
	d="
M17.000000,133.000000 
	C11.681098,133.000000 6.362196,133.000000 1.046191,133.000000 
	C1.049089,88.999977 1.049089,44.999969 1.049089,1.000000 
	C6.084653,1.000000 11.071129,1.000000 16.528847,1.468657 
	C17.000061,45.624878 17.000031,89.312439 17.000000,133.000000 
z"/>
<path fill="#D9D96E" opacity="1.000000" stroke="none" 
	d="
M347.000000,1.000000 
	C352.318909,1.000000 357.637787,1.000000 362.953796,1.000009 
	C362.950928,45.000023 362.950928,89.000031 362.950928,133.000000 
	C357.915344,133.000000 352.928894,133.000000 347.471191,132.531342 
	C347.000000,88.375122 347.000000,44.687561 347.000000,1.000000 
z"/>
<path fill="#96D193" opacity="1.000000" stroke="none" 
	d="
M223.000000,133.000000 
	C219.638718,133.000000 216.277420,133.000000 212.458069,132.531342 
	C211.999954,120.568787 212.054535,109.074364 211.945541,97.581505 
	C211.927597,95.688591 211.192108,93.802475 210.824615,91.452385 
	C210.873718,79.871155 210.882767,68.750755 210.902405,57.630367 
	C210.906250,55.459179 211.242096,53.107277 208.000397,52.542122 
	C208.001801,49.865070 208.003418,47.613132 208.333038,45.221130 
	C212.832840,41.617954 212.695129,39.889469 208.002594,36.370880 
	C208.001114,24.275301 208.000549,12.637650 208.000000,1.000000 
	C213.022095,1.000000 218.044189,1.000000 223.533142,1.468657 
	C224.000305,18.950310 224.000595,35.963303 223.628540,53.037907 
	C222.025787,53.253448 220.795380,53.407387 218.805023,53.656403 
	C223.012299,59.406517 226.706268,64.664803 230.638962,69.738022 
	C232.497620,72.135704 232.407837,73.943947 230.517715,76.295151 
	C226.610367,81.155678 222.984039,86.242119 218.954483,91.619484 
	C220.409332,91.886436 221.206299,92.032677 222.087128,92.577171 
	C222.447235,95.087440 222.947266,97.197868 222.962280,99.311737 
	C223.041916,110.540680 222.999893,121.770493 223.000000,133.000000 
z"/>
<path fill="#D1D872" opacity="1.000000" stroke="none" 
	d="
M346.533142,1.000000 
	C347.000000,44.687561 347.000000,88.375122 347.000000,132.531342 
	C342.975464,133.000000 338.950897,133.000000 334.463196,132.531342 
	C333.999908,119.617615 334.068634,107.171776 333.929810,94.728256 
	C333.907501,92.728058 332.959045,90.738190 332.654205,88.465775 
	C343.018921,76.884277 341.452667,63.217068 329.387634,54.261173 
	C330.172760,51.909355 330.931396,49.858723 330.944641,47.803291 
	C331.045197,32.202724 330.999847,16.601215 331.000000,1.000000 
	C336.022095,1.000000 341.044189,1.000000 346.533142,1.000000 
z"/>
<path fill="#39C5C7" opacity="1.000000" stroke="none" 
	d="
M17.463184,133.000000 
	C17.000031,89.312439 17.000061,45.624878 17.000046,1.468657 
	C22.022093,1.000000 27.044184,1.000000 32.533218,1.468586 
	C33.002743,8.976107 33.005329,16.015039 32.844059,23.342619 
	C31.199223,25.609343 29.487906,27.456305 28.275068,29.587013 
	C21.004921,42.359196 22.095369,54.473385 31.107590,66.143990 
	C30.530846,68.384712 30.040174,70.321007 30.034788,72.258659 
	C29.978491,92.505646 30.000027,112.752853 30.000000,133.000000 
	C25.975456,133.000000 21.950911,133.000000 17.463184,133.000000 
z"/>
<path fill="#8DD098" opacity="1.000000" stroke="none" 
	d="
M207.535355,1.000000 
	C208.000549,12.637650 208.001114,24.275301 207.634094,36.431473 
	C205.915192,38.369705 204.563858,39.789417 203.212524,41.209129 
	C204.810028,42.593155 206.407532,43.977173 208.005035,45.361191 
	C208.003418,47.613132 208.001801,49.865070 207.593750,52.607151 
	C204.362228,52.933388 204.004562,54.664074 204.021622,56.952534 
	C204.108566,68.614433 204.116180,80.276917 203.880188,92.261963 
	C203.405914,94.361595 203.035233,96.137711 203.027222,97.915466 
	C202.974533,109.610115 203.000015,121.305115 203.000000,133.000000 
	C199.638718,133.000000 196.277420,133.000000 192.458069,132.531342 
	C191.999985,113.349739 192.051285,94.636513 191.949265,75.924126 
	C191.932343,72.820457 191.246094,69.720436 191.054092,66.356644 
	C197.642563,58.778454 198.091949,52.648209 192.997009,42.827103 
	C193.386948,40.131432 193.940247,37.864429 193.958038,35.593235 
	C194.048386,24.062754 193.999878,12.531186 194.000000,1.000000 
	C198.356903,1.000000 202.713806,1.000000 207.535355,1.000000 
z"/>
<path fill="#A7D389" opacity="1.000000" stroke="none" 
	d="
M249.000000,1.000000 
	C252.361282,1.000000 255.722580,1.000000 259.541931,1.468657 
	C260.491943,21.247038 260.983856,40.556763 261.334534,60.161858 
	C257.032867,67.917198 257.177795,75.524940 260.312134,83.701370 
	C259.808655,87.616249 259.093140,91.065063 259.055542,94.521240 
	C258.916138,107.346176 259.000000,120.173546 259.000000,133.000000 
	C255.307098,133.000000 251.614182,133.000000 247.460632,132.531342 
	C247.000153,118.707939 247.000305,105.353195 247.426193,92.006653 
	C249.772537,92.014854 251.693176,92.014854 254.587448,92.014854 
	C253.178757,89.828705 252.381577,88.445122 251.444260,87.164070 
	C248.505569,83.147766 245.735397,78.977325 242.476273,75.235634 
	C239.634583,71.973206 239.758347,69.495819 242.564865,66.267479 
	C245.896408,62.435215 248.670380,58.118237 251.966110,53.629818 
	C250.569199,53.323421 249.784637,53.151337 249.000031,52.511894 
	C248.999985,35.029694 249.000000,18.014847 249.000000,1.000000 
z"/>
<path fill="#BED57C" opacity="1.000000" stroke="none" 
	d="
M295.000000,1.000000 
	C298.361298,1.000000 301.722565,1.000000 305.541931,1.468657 
	C306.000031,18.094679 305.960144,34.252277 306.053680,50.409103 
	C306.064636,52.298805 306.811676,54.184250 307.028442,56.356148 
	C295.752106,67.664391 296.749817,80.717300 309.136047,91.076569 
	C308.549561,93.320831 308.048920,95.252457 308.036987,97.187088 
	C307.963440,109.124344 308.000000,121.062286 308.000000,133.000000 
	C303.643097,133.000000 299.286194,133.000000 294.464661,132.531342 
	C294.000000,123.278938 294.124054,114.492821 293.956757,105.712265 
	C293.843750,99.781242 293.320190,93.858055 293.121887,87.633636 
	C292.934784,86.333138 292.606110,85.330368 292.277435,84.327591 
	C291.247101,84.777321 290.216766,85.227058 289.145996,85.174026 
	C289.091034,81.312134 289.076538,77.953018 289.481628,74.498703 
	C294.496155,74.874527 295.584381,72.556488 294.593506,68.540703 
	C294.203796,66.961304 293.890381,65.363075 293.746826,63.347160 
	C294.300873,60.659866 294.943359,58.400146 294.953491,56.137585 
	C295.035919,37.758686 294.999908,19.379263 295.000000,1.000000 
z"/>
<path fill="#78CBA2" opacity="1.000000" stroke="none" 
	d="
M150.000000,1.000000 
	C153.030594,1.000000 156.061188,1.000000 159.545898,1.468657 
	C160.331497,13.918040 160.663010,25.898766 160.800720,38.249008 
	C160.509415,55.353642 160.340454,72.089333 160.473755,88.822609 
	C160.482742,89.949394 162.773758,91.058014 164.002411,92.632759 
	C164.000916,106.393623 164.000458,119.696815 164.000000,133.000000 
	C159.643097,133.000000 155.286194,133.000000 150.464645,132.531342 
	C149.999557,122.195007 150.113358,112.324837 149.897537,102.461876 
	C149.856796,100.600258 148.504608,98.767349 147.840424,96.550400 
	C148.435593,94.823959 148.562500,93.008270 149.530853,92.196976 
	C152.719406,89.525620 152.253372,86.970070 150.123703,84.007095 
	C149.270905,82.820633 148.826523,81.340614 148.545624,79.832993 
	C149.263306,77.801704 149.946747,75.932571 149.952271,74.061432 
	C150.024200,49.707787 150.000000,25.353857 150.000000,1.000000 
z"/>
<path fill="#6DCCA9" opacity="1.000000" stroke="none" 
	d="
M127.000000,1.000000 
	C130.692902,1.000000 134.385818,1.000000 138.539368,1.468657 
	C139.000015,26.602385 138.970169,51.267559 139.054840,75.932335 
	C139.061859,77.980888 139.843033,80.026787 140.187469,82.350494 
	C140.041901,83.002899 139.973389,83.378723 139.630585,83.952095 
	C137.195709,86.363770 135.035095,88.577896 132.571304,90.909790 
	C130.851822,92.041252 129.435516,93.054947 127.942719,93.653229 
	C127.577515,90.777000 127.042839,88.316704 127.037704,85.855301 
	C126.978668,57.570297 127.000031,29.285126 127.000000,1.000000 
z"/>
<path fill="#68CBAD" opacity="1.000000" stroke="none" 
	d="
M126.539368,1.000000 
	C127.000031,29.285126 126.978668,57.570297 127.037704,85.855301 
	C127.042839,88.316704 127.577515,90.777000 127.792603,93.911369 
	C127.070587,95.343376 126.422180,96.101830 125.455704,96.974503 
	C121.785088,98.814835 118.432549,100.540947 115.061127,101.781998 
	C115.028168,98.833733 115.097908,96.366638 114.983650,93.908096 
	C114.688393,87.555061 114.311928,81.205803 114.178848,74.604630 
	C116.622780,72.262383 118.855751,70.170555 121.084320,68.052261 
	C121.079918,68.025803 121.037285,68.058357 121.292351,68.021797 
	C121.665024,67.674591 121.782631,67.363937 121.917992,66.672012 
	C121.448036,64.196732 120.960327,62.102726 120.407623,59.597324 
	C119.769569,55.511116 119.707748,51.514366 114.909668,50.016216 
	C114.957283,33.343849 114.978645,17.171925 115.000000,1.000000 
	C118.692909,1.000000 122.385818,1.000000 126.539368,1.000000 
z"/>
<path fill="#86CF9B" opacity="1.000000" stroke="none" 
	d="
M190.869171,66.618729 
	C191.246094,69.720436 191.932343,72.820457 191.949265,75.924126 
	C192.051285,94.636513 191.999985,113.349739 192.000000,132.531342 
	C187.643097,133.000000 183.286194,133.000000 178.464645,132.531342 
	C178.000214,111.706558 178.000412,91.350441 178.393982,70.921631 
	C182.814621,69.438873 186.841888,68.028801 190.869171,66.618729 
z"/>
<path fill="#73CDA6" opacity="1.000000" stroke="none" 
	d="
M140.264511,82.073914 
	C139.843033,80.026787 139.061859,77.980888 139.054840,75.932335 
	C138.970169,51.267559 139.000015,26.602385 139.000000,1.468657 
	C142.361282,1.000000 145.722580,1.000000 149.541931,1.000000 
	C150.000000,25.353857 150.024200,49.707787 149.952271,74.061432 
	C149.946747,75.932571 149.263306,77.801704 148.354752,79.567696 
	C147.066620,78.290993 146.318695,77.118362 145.708893,76.162277 
	C143.790146,78.245697 142.027328,80.159805 140.264511,82.073914 
z"/>
<path fill="#9DD28F" opacity="1.000000" stroke="none" 
	d="
M224.000885,52.976299 
	C224.000595,35.963303 224.000305,18.950310 224.000000,1.468657 
	C228.356903,1.000000 232.713806,1.000000 237.535339,1.408136 
	C238.085480,23.065742 238.170990,44.315212 238.119965,65.828163 
	C236.710510,65.344292 235.211288,64.821655 234.205704,63.808884 
	C230.711639,60.289825 227.388824,56.600727 224.000885,52.976299 
z"/>
<path fill="#80CE9F" opacity="1.000000" stroke="none" 
	d="
M178.000610,70.994308 
	C178.000412,91.350441 178.000214,111.706558 178.000000,132.531342 
	C173.643097,133.000000 169.286194,133.000000 164.464645,133.000000 
	C164.000458,119.696815 164.000916,106.393623 164.411346,92.575439 
	C167.833649,92.228859 167.788864,90.161087 167.782318,88.066322 
	C167.763809,82.152161 167.775864,76.237892 167.775864,70.067017 
	C171.759583,70.428307 174.880096,70.711304 178.000610,70.994308 
z"/>
<path fill="#5BC9B4" opacity="1.000000" stroke="none" 
	d="
M88.000000,1.000000 
	C92.025185,1.000000 96.050362,1.000000 100.537773,1.468657 
	C101.000000,8.722386 100.925667,15.508466 101.017601,22.292292 
	C101.151955,32.205406 101.405647,42.116901 101.440948,52.234871 
	C100.467888,53.199398 99.662338,53.958145 98.547333,54.833618 
	C96.986252,56.154320 95.734619,57.358295 94.281113,58.723610 
	C93.864632,59.159119 93.650032,59.433285 93.108742,59.771706 
	C88.180832,62.557575 83.579628,65.279190 79.024185,67.573044 
	C79.077629,65.998245 79.085304,64.851204 79.122986,63.572510 
	C79.270432,63.182079 79.464867,63.027981 80.157196,63.071247 
	C89.426796,58.420788 92.728485,41.364029 86.383560,32.310661 
	C86.180183,31.378202 86.086029,30.743385 86.046455,29.830687 
	C86.134567,29.367008 86.168091,29.181213 86.550385,28.833359 
	C87.266045,26.985840 87.923882,25.304834 87.949776,23.614149 
	C88.065170,16.077610 87.999954,8.538305 88.000000,1.000000 
z"/>
<path fill="#AED385" opacity="1.000000" stroke="none" 
	d="
M261.475769,59.866486 
	C260.983856,40.556763 260.491943,21.247038 260.000000,1.468657 
	C264.356903,1.000000 268.713806,1.000000 273.535339,1.468657 
	C274.032074,18.780148 274.064148,35.622978 273.773529,52.601929 
	C269.459137,55.114193 265.467468,57.490337 261.475769,59.866486 
z"/>
<path fill="#3EC6C4" opacity="1.000000" stroke="none" 
	d="
M30.460636,133.000000 
	C30.000027,112.752853 29.978491,92.505646 30.034788,72.258659 
	C30.040174,70.321007 30.530846,68.384712 31.298122,66.335739 
	C32.690861,67.153328 33.581699,68.082970 34.639038,69.330276 
	C37.182720,71.473907 39.559910,73.299866 41.970921,75.306793 
	C42.004742,75.487770 42.061623,75.851578 42.046726,76.329330 
	C42.021221,95.538048 42.010612,114.269028 42.000000,133.000000 
	C38.307091,133.000000 34.614182,133.000000 30.460636,133.000000 
z"/>
<path fill="#C9D776" opacity="1.000000" stroke="none" 
	d="
M330.535339,1.000000 
	C330.999847,16.601215 331.045197,32.202724 330.944641,47.803291 
	C330.931396,49.858723 330.172760,51.909355 329.078674,54.145283 
	C324.621185,53.662601 320.844360,52.996849 317.051819,51.841911 
	C317.024048,34.568485 317.012024,17.784243 317.000000,1.000000 
	C321.356903,1.000000 325.713806,1.000000 330.535339,1.000000 
z"/>
<path fill="#61CBB0" opacity="1.000000" stroke="none" 
	d="
M101.608475,52.029091 
	C101.405647,42.116901 101.151955,32.205406 101.017601,22.292292 
	C100.925667,15.508466 101.000000,8.722386 101.000000,1.468657 
	C105.356903,1.000000 109.713799,1.000000 114.535355,1.000000 
	C114.978645,17.171925 114.957283,33.343849 114.475960,49.929466 
	C109.880157,50.905140 105.744316,51.467113 101.608475,52.029091 
z"/>
<path fill="#A3D28C" opacity="1.000000" stroke="none" 
	d="
M238.256500,65.564682 
	C238.170990,44.315212 238.085480,23.065742 237.999969,1.408136 
	C241.361282,1.000000 244.722580,1.000000 248.541931,1.000000 
	C249.000000,18.014847 248.999985,35.029694 248.692337,52.643677 
	C245.008636,57.350101 241.632568,61.457390 238.256500,65.564682 
z"/>
<path fill="#A1D28C" opacity="1.000000" stroke="none" 
	d="
M247.000473,91.998451 
	C247.000305,105.353195 247.000153,118.707939 247.000000,132.531342 
	C242.975449,133.000000 238.950912,133.000000 234.463181,132.531342 
	C233.999985,116.699516 234.047791,101.336029 233.942184,85.973587 
	C233.928253,83.948273 233.130966,81.928352 232.850952,79.599304 
	C233.759186,78.499321 234.512939,77.705971 235.597656,76.564285 
	C239.561737,81.929832 243.281113,86.964142 247.000473,91.998451 
z"/>
<path fill="#C6D778" opacity="1.000000" stroke="none" 
	d="
M308.466125,133.000000 
	C308.000000,121.062286 307.963440,109.124344 308.036987,97.187088 
	C308.048920,95.252457 308.549561,93.320831 309.486694,91.159134 
	C314.432770,91.623665 318.716431,92.316879 323.000061,93.478119 
	C323.000000,106.964096 323.000000,119.982048 323.000000,133.000000 
	C318.310760,133.000000 313.621490,133.000000 308.466125,133.000000 
z"/>
<path fill="#44C7C0" opacity="1.000000" stroke="none" 
	d="
M42.458069,133.000000 
	C42.010612,114.269028 42.021221,95.538048 42.383560,76.459381 
	C44.802265,76.794136 46.869232,77.476578 49.057030,78.320541 
	C49.395020,78.665573 49.645493,78.748543 50.303875,78.831879 
	C51.450119,79.007454 52.221760,79.082115 52.995209,79.615616 
	C52.998009,97.716293 52.999004,115.358147 53.000000,133.000000 
	C49.638714,133.000000 46.277424,133.000000 42.458069,133.000000 
z"/>
<path fill="#C3D679" opacity="1.000000" stroke="none" 
	d="
M316.541931,1.000000 
	C317.012024,17.784243 317.024048,34.568485 316.731262,52.007652 
	C313.356842,53.798939 310.287170,54.935303 307.217499,56.071671 
	C306.811676,54.184250 306.064636,52.298805 306.053680,50.409103 
	C305.960144,34.252277 306.000031,18.094679 306.000000,1.468657 
	C309.361298,1.000000 312.722565,1.000000 316.541931,1.000000 
z"/>
<path fill="#BAD57F" opacity="1.000000" stroke="none" 
	d="
M294.545898,1.000000 
	C294.999908,19.379263 295.035919,37.758686 294.953491,56.137585 
	C294.943359,58.400146 294.300873,60.659866 293.566345,63.025490 
	C290.451996,60.116543 287.722717,57.103008 284.995056,53.615211 
	C284.997803,35.760632 284.998901,18.380316 285.000000,1.000000 
	C288.030609,1.000000 291.061188,1.000000 294.545898,1.000000 
z"/>
<path fill="#B5D582" opacity="1.000000" stroke="none" 
	d="
M284.541931,1.000000 
	C284.998901,18.380316 284.997803,35.760632 284.613708,53.560226 
	C280.852570,53.474945 277.474396,52.970379 274.096222,52.465813 
	C274.064148,35.622978 274.032074,18.780148 274.000000,1.468657 
	C277.361298,1.000000 280.722565,1.000000 284.541931,1.000000 
z"/>
<path fill="#4AC8BE" opacity="1.000000" stroke="none" 
	d="
M53.464653,133.000000 
	C52.999004,115.358147 52.998009,97.716293 53.256023,79.533310 
	C53.689953,78.940865 53.864872,78.889549 54.268585,78.877335 
	C54.497375,78.916428 54.955734,78.842941 55.379219,78.892715 
	C57.220825,78.897270 58.638954,78.852051 60.278267,78.839539 
	C60.499451,78.872238 60.941925,78.807556 61.344460,78.855652 
	C62.553196,78.831795 63.359398,78.759834 64.068695,79.012772 
	C63.310005,80.225182 62.648220,81.112694 61.902504,82.087250 
	C61.818573,82.174309 61.822662,82.416122 61.495407,82.610245 
	C60.626087,85.104111 60.084023,87.403854 59.659698,89.911888 
	C59.935600,90.401482 60.061665,90.696503 60.183281,91.281227 
	C60.452290,95.084175 60.693649,98.611145 60.949432,102.528931 
	C62.249100,106.621559 63.534340,110.323357 64.937057,114.298187 
	C65.741493,115.269722 66.428452,115.968246 67.088562,117.153854 
	C67.041153,122.760628 67.020576,127.880318 67.000000,133.000000 
	C62.643101,133.000000 58.286201,133.000000 53.464653,133.000000 
z"/>
<path fill="#ADD486" opacity="1.000000" stroke="none" 
	d="
M259.460632,133.000000 
	C259.000000,120.173546 258.916138,107.346176 259.055542,94.521240 
	C259.093140,91.065063 259.808655,87.616249 260.529419,84.000893 
	C263.128845,88.930305 267.949585,90.660789 272.231506,92.987740 
	C271.605255,95.228790 271.055115,97.156609 271.040894,99.088371 
	C270.957794,110.391739 271.000061,121.696022 271.000000,133.000000 
	C267.307098,133.000000 263.614166,133.000000 259.460632,133.000000 
z"/>
<path fill="#9BD190" opacity="1.000000" stroke="none" 
	d="
M232.696487,79.905930 
	C233.130966,81.928352 233.928253,83.948273 233.942184,85.973587 
	C234.047791,101.336029 233.999985,116.699516 234.000000,132.531342 
	C230.638718,133.000000 227.277420,133.000000 223.458069,133.000000 
	C222.999893,121.770493 223.041916,110.540680 222.962280,99.311737 
	C222.947266,97.197868 222.447235,95.087440 222.414200,92.466797 
	C226.003754,87.940765 229.350113,83.923347 232.696487,79.905930 
z"/>
<path fill="#B9D580" opacity="1.000000" stroke="none" 
	d="
M292.980286,87.931351 
	C293.320190,93.858055 293.843750,99.781242 293.956757,105.712265 
	C294.124054,114.492821 294.000000,123.278938 294.000000,132.531342 
	C290.307098,133.000000 286.614166,133.000000 282.460632,132.531342 
	C281.999664,119.033920 281.999298,106.005165 282.335907,92.832230 
	C286.108673,91.102493 289.544495,89.516922 292.980286,87.931351 
z"/>
<path fill="#82CE9E" opacity="1.000000" stroke="none" 
	d="
M170.000000,1.000000 
	C174.025177,1.000000 178.050369,1.000000 182.537781,1.468657 
	C183.000183,13.935109 183.000351,25.932903 182.537872,37.957283 
	C178.050903,37.897430 174.026566,37.810993 170.001801,37.273167 
	C170.000900,24.881186 170.000458,12.940593 170.000000,1.000000 
z"/>
<path fill="#CCD775" opacity="1.000000" stroke="none" 
	d="
M323.458069,133.000000 
	C323.000000,119.982048 323.000000,106.964096 323.334747,93.334305 
	C326.592560,91.396156 329.515656,90.069847 332.438721,88.743546 
	C332.959045,90.738190 333.907501,92.728058 333.929810,94.728256 
	C334.068634,107.171776 333.999908,119.617615 334.000000,132.531342 
	C330.638702,133.000000 327.277435,133.000000 323.458069,133.000000 
z"/>
<path fill="#B3D583" opacity="1.000000" stroke="none" 
	d="
M281.998932,92.976402 
	C281.999298,106.005165 281.999664,119.033920 282.000000,132.531342 
	C278.638702,133.000000 275.277435,133.000000 271.458069,133.000000 
	C271.000061,121.696022 270.957794,110.391739 271.040894,99.088371 
	C271.055115,97.156609 271.605255,95.228790 272.636353,93.007553 
	C276.242889,92.802757 279.120911,92.889580 281.998932,92.976402 
z"/>
<path fill="#88CF9A" opacity="1.000000" stroke="none" 
	d="
M183.000534,37.930698 
	C183.000351,25.932903 183.000183,13.935109 183.000000,1.468657 
	C186.361282,1.000000 189.722580,1.000000 193.541931,1.000000 
	C193.999878,12.531186 194.048386,24.062754 193.958038,35.593235 
	C193.940247,37.864429 193.386948,40.131432 192.700882,42.646030 
	C189.214279,41.238029 186.107407,39.584366 183.000534,37.930698 
z"/>
<path fill="#73CDA7" opacity="1.000000" stroke="none" 
	d="
M147.757568,96.921188 
	C148.504608,98.767349 149.856796,100.600258 149.897537,102.461876 
	C150.113358,112.324837 149.999557,122.195007 150.000000,132.531342 
	C146.307098,133.000000 142.614182,133.000000 138.460632,132.531342 
	C138.000000,130.083969 138.074127,128.101944 137.986511,126.127113 
	C137.688873,119.418846 137.334122,112.713104 137.156158,105.745422 
	C138.229935,104.719315 139.148743,103.954178 140.367615,103.032928 
	C143.030960,100.891609 145.394272,98.906403 147.757568,96.921188 
z"/>
<path fill="#91D095" opacity="1.000000" stroke="none" 
	d="
M203.449982,133.000000 
	C203.000015,121.305115 202.974533,109.610115 203.027222,97.915466 
	C203.035233,96.137711 203.405914,94.361595 204.295074,92.285126 
	C206.916946,91.961433 208.852600,91.937325 210.788239,91.913223 
	C211.192108,93.802475 211.927597,95.688591 211.945541,97.581505 
	C212.054535,109.074364 211.999954,120.568787 212.000000,132.531342 
	C209.299988,133.000000 206.599976,133.000000 203.449982,133.000000 
z"/>
<path fill="#7DCDA1" opacity="1.000000" stroke="none" 
	d="
M169.545898,1.000000 
	C170.000458,12.940593 170.000900,24.881186 169.555557,37.338959 
	C166.404694,37.863926 163.699600,37.871708 160.994522,37.879490 
	C160.663010,25.898766 160.331497,13.918040 160.000000,1.468657 
	C163.030594,1.000000 166.061188,1.000000 169.545898,1.000000 
z"/>
<path fill="#54C8B7" opacity="1.000000" stroke="none" 
	d="
M87.533882,1.000000 
	C87.999954,8.538305 88.065170,16.077610 87.949776,23.614149 
	C87.923882,25.304834 87.266045,26.985840 86.361794,28.584595 
	C85.248703,28.276865 84.672958,28.055843 84.057045,27.608253 
	C84.016876,27.381685 83.890396,26.938011 83.832840,26.619148 
	C82.875732,26.020454 81.976181,25.740623 80.819244,25.271263 
	C80.375252,24.978800 80.188667,24.875864 80.018578,24.420004 
	C77.321815,21.142071 74.608543,18.217062 71.980614,14.865551 
	C72.377304,9.959365 72.688652,5.479682 73.000000,1.000000 
	C77.689255,1.000000 82.378510,1.000000 87.533882,1.000000 
z"/>
<path fill="#41C6C2" opacity="1.000000" stroke="none" 
	d="
M33.007919,23.053974 
	C33.005329,16.015039 33.002743,8.976107 33.000076,1.468586 
	C39.021152,1.000000 45.042305,1.000000 51.531918,1.457974 
	C51.995975,5.555225 51.991573,9.194504 51.614521,12.920888 
	C45.163887,16.356655 39.085903,19.705315 33.007919,23.053974 
z"/>
<path fill="#6ECCAA" opacity="1.000000" stroke="none" 
	d="
M137.001190,106.006393 
	C137.334122,112.713104 137.688873,119.418846 137.986511,126.127113 
	C138.074127,128.101944 138.000000,130.083969 138.000000,132.531342 
	C134.307098,133.000000 130.614182,133.000000 126.460754,132.531509 
	C125.960800,125.949806 125.921371,119.836594 125.876801,113.433815 
	C125.907921,112.758957 125.944176,112.373665 126.240677,111.892715 
	C127.031845,111.296875 127.562767,110.796692 128.447540,110.263702 
	C129.878342,109.854355 130.955307,109.477829 132.351166,109.016602 
	C134.113754,107.956726 135.557465,106.981560 137.001190,106.006393 
z"/>
<path fill="#4CC7BC" opacity="1.000000" stroke="none" 
	d="
M51.987171,12.833781 
	C51.991573,9.194504 51.995975,5.555225 52.000191,1.457974 
	C58.687645,1.000000 65.375290,1.000000 72.531464,1.000000 
	C72.688652,5.479682 72.377304,9.959365 71.614906,14.743867 
	C64.771629,14.310385 58.379398,13.572083 51.987171,12.833781 
z"/>
<path fill="#67CBAD" opacity="1.000000" stroke="none" 
	d="
M125.881943,113.723389 
	C125.921371,119.836594 125.960800,125.949806 126.000114,132.531509 
	C122.307091,133.000000 118.614182,133.000000 114.460632,132.534302 
	C113.998566,127.406715 113.997139,122.744820 114.340652,117.967285 
	C116.952797,116.707848 119.220009,115.564056 121.861786,114.423065 
	C123.451553,114.191711 124.666748,113.957550 125.881943,113.723389 
z"/>
<path fill="#61CBB1" opacity="1.000000" stroke="none" 
	d="
M113.995712,118.082932 
	C113.997139,122.744820 113.998566,127.406715 114.000000,132.534302 
	C109.310745,133.000000 104.621490,133.000000 99.466171,132.540680 
	C98.998215,128.414886 98.996315,124.748428 99.401764,121.000229 
	C104.537987,119.973312 109.266853,119.028122 113.995712,118.082932 
z"/>
<path fill="#51C8BA" opacity="1.000000" stroke="none" 
	d="
M67.466118,133.000000 
	C67.020576,127.880318 67.041153,122.760628 67.365326,117.224876 
	C67.854546,116.851479 68.040169,116.894142 68.300446,117.069885 
	C68.528419,117.364525 68.713867,117.421494 69.212257,117.548706 
	C69.699654,117.800735 69.906227,117.877930 70.322113,118.235550 
	C74.370468,119.543282 78.209518,120.570580 82.037598,122.081070 
	C82.017761,126.042847 82.008881,129.521423 82.000000,133.000000 
	C77.310745,133.000000 72.621490,133.000000 67.466118,133.000000 
z"/>
<path fill="#5ACAB5" opacity="1.000000" stroke="none" 
	d="
M82.467606,133.000000 
	C82.008881,129.521423 82.017761,126.042847 82.497406,122.116165 
	C88.310249,121.472687 93.652328,121.277328 98.994408,121.081970 
	C98.996315,124.748428 98.998215,128.414886 99.000061,132.540680 
	C93.645073,133.000000 88.290138,133.000000 82.467606,133.000000 
z"/>
<path fill="#575A57" opacity="1.000000" stroke="none" 
	d="
M232.850952,79.599297 
	C229.350113,83.923347 226.003754,87.940765 222.330322,92.068542 
	C221.206299,92.032677 220.409332,91.886436 218.954483,91.619484 
	C222.984039,86.242119 226.610367,81.155678 230.517715,76.295151 
	C232.407837,73.943947 232.497620,72.135704 230.638962,69.738022 
	C226.706268,64.664803 223.012299,59.406517 218.805023,53.656403 
	C220.795380,53.407387 222.025787,53.253448 223.628540,53.037907 
	C227.388824,56.600727 230.711639,60.289825 234.205704,63.808884 
	C235.211288,64.821655 236.710510,65.344292 238.119965,65.828163 
	C241.632568,61.457390 245.008636,57.350101 248.692383,53.111031 
	C249.784637,53.151337 250.569199,53.323421 251.966110,53.629818 
	C248.670380,58.118237 245.896408,62.435215 242.564865,66.267479 
	C239.758347,69.495819 239.634583,71.973206 242.476273,75.235634 
	C245.735397,78.977325 248.505569,83.147766 251.444260,87.164070 
	C252.381577,88.445122 253.178757,89.828705 254.587448,92.014854 
	C251.693176,92.014854 249.772537,92.014854 247.426193,92.006653 
	C243.281113,86.964142 239.561737,81.929832 235.597656,76.564285 
	C234.512939,77.705971 233.759186,78.499321 232.850952,79.599297 
z"/>
<path fill="#585C58" opacity="1.000000" stroke="none" 
	d="
M210.824615,91.452393 
	C208.852600,91.937325 206.916946,91.961433 204.566422,91.962372 
	C204.116180,80.276917 204.108566,68.614433 204.021622,56.952534 
	C204.004562,54.664074 204.362228,52.933388 207.593964,53.032257 
	C211.242096,53.107277 210.906250,55.459179 210.902405,57.630367 
	C210.882767,68.750755 210.873718,79.871155 210.824615,91.452393 
z"/>
<path fill="#585D59" opacity="1.000000" stroke="none" 
	d="
M208.333038,45.221130 
	C206.407532,43.977173 204.810028,42.593155 203.212524,41.209129 
	C204.563858,39.789417 205.915192,38.369705 207.635040,36.889397 
	C212.695129,39.889469 212.832840,41.617954 208.333038,45.221130 
z"/>
<path fill="#595A56" opacity="1.000000" stroke="none" 
	d="
M332.654205,88.465775 
	C329.515656,90.069847 326.592560,91.396156 323.334778,92.866280 
	C318.716431,92.316879 314.432770,91.623665 309.798462,90.847885 
	C296.749817,80.717300 295.752106,67.664391 307.028442,56.356148 
	C310.287170,54.935303 313.356842,53.798939 316.747040,52.496834 
	C320.844360,52.996849 324.621185,53.662601 328.706940,54.444244 
	C341.452667,63.217068 343.018921,76.884277 332.654205,88.465775 
M327.972351,86.479027 
	C332.911255,80.115189 332.760956,72.884476 331.192017,65.590897 
	C329.756927,58.919300 326.019318,55.927574 319.870728,55.804947 
	C313.295807,55.673817 309.191101,58.461025 307.794250,65.238205 
	C306.908447,69.535606 306.698303,74.211464 307.354645,78.540268 
	C308.977570,89.243843 318.116760,92.911743 327.972351,86.479027 
z"/>
<path fill="#536D8B" opacity="1.000000" stroke="none" 
	d="
M51.614521,12.920888 
	C58.379398,13.572083 64.771629,14.310385 71.529564,15.170370 
	C74.608543,18.217062 77.321815,21.142071 79.992317,24.773022 
	C80.322899,26.287695 80.696243,27.096424 81.044724,27.939278 
	C81.019867,27.973404 81.099442,27.945166 81.063248,28.299545 
	C81.122147,29.115784 81.217247,29.577644 81.435959,30.398458 
	C81.727173,32.802254 81.894760,34.847099 82.252472,37.157738 
	C83.281563,37.607388 84.120537,37.791245 85.229454,37.937119 
	C85.804230,37.619957 86.109055,37.340782 86.413879,37.061611 
	C86.001984,36.731548 85.590080,36.401489 85.160477,35.693596 
	C85.084412,34.563187 85.026039,33.810608 85.353607,32.961422 
	C85.990623,32.779316 86.241692,32.693813 86.492767,32.608307 
	C92.728485,41.364029 89.426796,58.420788 80.399902,62.719627 
	C80.576332,61.839447 80.930962,61.403580 81.542831,60.785862 
	C82.610023,58.415359 83.419975,56.226707 84.148346,53.781616 
	C84.074265,53.345940 84.081749,53.166695 84.423141,52.903351 
	C89.280746,49.614876 84.264969,46.624748 85.013031,43.505177 
	C84.507797,43.474159 84.002563,43.443142 83.497322,43.412128 
	C83.343269,45.857994 83.189209,48.303860 82.738991,50.939327 
	C81.966492,52.407955 81.490143,53.686985 80.951729,55.260925 
	C80.572052,56.051136 80.254440,56.546432 79.625618,57.152859 
	C74.833832,61.187168 70.353264,65.110344 65.512016,69.107666 
	C60.015285,70.504005 54.879227,71.826195 49.304832,73.192619 
	C46.643623,72.726959 44.420746,72.217079 42.143585,71.742798 
	C42.089298,71.778389 42.111198,71.906357 41.954247,71.604820 
	C41.138927,71.135620 40.480556,70.967957 39.579723,70.538788 
	C37.715687,69.855713 36.094116,69.434158 34.472542,69.012604 
	C33.581699,68.082970 32.690861,67.153328 31.609486,66.031944 
	C22.095369,54.473385 21.004921,42.359196 28.275068,29.587013 
	C29.487906,27.456305 31.199223,25.609343 32.844059,23.342619 
	C39.085903,19.705315 45.163887,16.356655 51.614521,12.920888 
M55.042538,16.421726 
	C52.334316,14.662933 41.986130,17.549665 41.282539,20.376694 
	C41.181927,20.780939 42.428501,21.520475 42.903866,22.751225 
	C43.605549,25.154076 44.307228,27.556925 45.506767,31.664663 
	C49.414719,28.373549 52.459007,26.556973 54.368759,23.919037 
	C55.500309,22.356030 54.841080,19.496574 55.042538,16.421726 
M29.828999,40.876583 
	C31.968502,40.630695 34.115982,40.131001 36.245655,40.197929 
	C39.504566,40.300346 40.966038,38.621445 41.940063,35.801426 
	C44.124199,29.477871 38.968563,28.855415 34.563187,26.928593 
	C31.113876,28.761976 26.572561,36.081890 27.072985,39.353188 
	C27.167299,39.969727 28.331686,40.422573 29.828999,40.876583 
M65.364922,17.937248 
	C64.325813,18.431952 62.888248,18.650637 62.319729,19.471331 
	C60.341915,22.326422 58.665306,25.390167 56.775928,28.538254 
	C58.107960,30.136799 59.354843,31.633158 60.755970,33.314621 
	C65.940788,31.227062 70.938194,29.214958 77.169624,26.705999 
	C74.622833,23.642326 72.767776,21.410786 70.854805,18.610691 
	C69.290398,17.910009 67.725983,17.209326 66.093773,16.478275 
	C66.027863,17.189199 65.983940,17.663055 65.364922,17.937248 
M59.251987,66.828842 
	C60.203388,65.110100 62.375931,62.840431 61.892548,61.768990 
	C59.912163,57.379379 57.129200,53.350697 54.598930,49.215305 
	C54.513729,49.076057 53.967926,49.191822 53.641857,49.230835 
	C49.770298,49.694054 46.249817,50.335629 46.077057,55.531677 
	C45.979465,58.466919 45.186893,61.410179 44.452553,64.284737 
	C43.653236,67.413643 45.226170,68.979301 47.887466,68.856758 
	C51.450783,68.692680 54.978832,67.762703 59.251987,66.828842 
M62.834747,48.473316 
	C64.902687,50.151405 66.847450,52.029026 69.094872,53.416344 
	C70.093033,54.032497 72.040741,54.213120 72.976921,53.641190 
	C77.705894,50.752155 80.429741,41.822674 78.316200,35.740860 
	C73.872627,36.203533 69.130508,36.163647 64.748413,37.399918 
	C62.828716,37.941498 61.117210,40.903191 60.332504,43.126438 
	C59.893353,44.370651 61.544296,46.352581 62.834747,48.473316 
M29.064451,47.906475 
	C27.256462,52.846348 29.222525,59.081028 33.519524,61.493835 
	C34.181721,61.865669 35.813847,61.750019 36.147743,61.269459 
	C38.699375,57.596992 41.134434,53.831894 43.351402,49.950333 
	C43.708858,49.324474 43.008907,47.837399 42.435837,46.994473 
	C41.445961,45.538471 40.172302,44.275402 38.688927,42.548676 
	C35.677280,44.200565 32.698490,45.834435 29.064451,47.906475 
M43.794933,58.904636 
	C43.706650,58.496906 43.618366,58.089172 43.530087,57.681446 
	C43.412346,57.772526 43.185715,57.876949 43.194969,57.952465 
	C43.245556,58.365303 43.354103,58.771038 43.794933,58.904636 
z"/>
<path fill="#565A58" opacity="1.000000" stroke="none" 
	d="
M160.800720,38.249008 
	C163.699600,37.871708 166.404694,37.863926 169.556000,37.790352 
	C174.026566,37.810993 178.050903,37.897430 182.537872,37.957283 
	C186.107407,39.584366 189.214279,41.238029 192.617279,43.072762 
	C198.091949,52.648209 197.642563,58.778454 191.054092,66.356644 
	C186.841888,68.028801 182.814621,69.438873 178.393982,70.921631 
	C174.880096,70.711304 171.759583,70.428307 167.775864,70.067017 
	C167.775864,76.237892 167.763809,82.152161 167.782318,88.066322 
	C167.788864,90.161087 167.833649,92.228859 164.412369,92.117752 
	C162.773758,91.058014 160.482742,89.949394 160.473755,88.822609 
	C160.340454,72.089333 160.509415,55.353642 160.800720,38.249008 
M187.631927,49.194492 
	C183.915741,42.690857 177.770798,39.738403 170.426804,41.322353 
	C169.362183,41.551975 167.952164,43.423458 167.904800,44.584236 
	C167.654053,50.732098 167.621231,56.903740 167.919739,63.047371 
	C167.984421,64.378738 169.504440,66.481491 170.715469,66.784393 
	C182.434814,69.715691 190.467178,61.716076 187.631927,49.194492 
z"/>
<path fill="#595B57" opacity="1.000000" stroke="none" 
	d="
M282.335907,92.832230 
	C279.120911,92.889580 276.242889,92.802757 272.960022,92.696136 
	C267.949585,90.660789 263.128845,88.930305 260.628601,83.538223 
	C257.177795,75.524940 257.032867,67.917198 261.334534,60.161858 
	C265.467468,57.490337 269.459137,55.114193 273.773529,52.601929 
	C277.474396,52.970379 280.852570,53.474945 284.612091,54.034492 
	C287.722717,57.103008 290.451996,60.116543 293.361755,63.451748 
	C293.890381,65.363075 294.203796,66.961304 294.593506,68.540703 
	C295.584381,72.556488 294.496155,74.874527 289.020416,74.379028 
	C280.726013,74.354546 273.312378,74.354546 265.676086,74.354546 
	C265.546631,80.775520 267.274506,85.592255 272.660400,88.216881 
	C278.619537,91.120888 284.261566,90.322739 289.186432,85.676804 
	C290.216766,85.227058 291.247101,84.777321 292.277435,84.327591 
	C292.606110,85.330368 292.934784,86.333138 293.121887,87.633636 
	C289.544495,89.516922 286.108673,91.102493 282.335907,92.832230 
M270.812622,57.165203 
	C266.859283,60.776772 265.351776,65.202194 266.119141,70.806625 
	C273.417236,70.806625 280.450592,70.806625 287.452606,70.806625 
	C288.649841,59.224449 280.958954,52.627087 270.812622,57.165203 
z"/>
<path fill="#AFCE80" opacity="1.000000" stroke="none" 
	d="
M289.145996,85.174026 
	C284.261566,90.322739 278.619537,91.120888 272.660400,88.216881 
	C267.274506,85.592255 265.546631,80.775520 265.676086,74.354546 
	C273.312378,74.354546 280.726013,74.354546 288.600830,74.474228 
	C289.076538,77.953018 289.091034,81.312134 289.145996,85.174026 
z"/>
<path fill="#C5E5DE" opacity="1.000000" stroke="none" 
	d="
M125.876801,113.433823 
	C124.666748,113.957550 123.451553,114.191711 121.587570,114.171188 
	C117.608040,114.692017 114.231117,115.313210 110.961075,116.291595 
	C108.316223,117.082909 105.728951,118.692703 104.013184,114.647446 
	C103.675117,113.541542 103.348999,112.763771 103.028870,111.651817 
	C103.043549,110.872055 103.052223,110.426483 103.241257,109.855896 
	C103.648399,109.540794 103.834923,109.317146 104.285202,108.915672 
	C105.715866,107.885178 106.842529,106.998932 108.328552,106.070267 
	C110.077812,105.673279 111.467712,105.318718 113.211136,104.983612 
	C114.814156,105.339188 116.063667,105.675323 117.313179,106.011452 
	C117.131462,105.602722 116.949738,105.193993 116.768021,104.785263 
	C119.501244,103.534492 122.234474,102.283722 124.993011,101.223877 
	C125.168121,101.599831 125.317924,101.784874 125.467720,101.969910 
	C125.322861,101.639198 125.178009,101.308479 125.101944,100.683510 
	C125.371750,99.212929 125.572754,98.036606 125.773773,96.860283 
	C126.422180,96.101830 127.070587,95.343376 127.869095,94.326782 
	C129.435516,93.054947 130.851822,92.041252 132.793060,91.136154 
	C137.481049,90.478157 139.609192,87.922096 139.904861,83.754547 
	C139.973389,83.378723 140.041901,83.002899 140.187469,82.350494 
	C142.027328,80.159805 143.790146,78.245697 145.708893,76.162277 
	C146.318695,77.118362 147.066620,78.290993 148.005402,79.728912 
	C148.826523,81.340614 149.270905,82.820633 150.123703,84.007095 
	C152.253372,86.970070 152.719406,89.525620 149.530853,92.196976 
	C148.562500,93.008270 148.435593,94.823959 147.840424,96.550407 
	C145.394272,98.906403 143.030960,100.891609 140.290176,102.725540 
	C139.285675,102.292679 138.229782,101.633682 138.095779,101.785965 
	C136.004333,104.162575 134.032059,106.644035 132.032272,109.101303 
	C130.955307,109.477829 129.878342,109.854355 128.414001,109.919731 
	C127.518456,109.024490 127.010300,108.440414 126.502151,107.856331 
	C126.328247,109.233681 126.154350,110.611023 125.980446,111.988373 
	C125.944176,112.373665 125.907921,112.758957 125.876801,113.433823 
z"/>
<path fill="#C4E5DD" opacity="1.000000" stroke="none" 
	d="
M139.630585,83.952095 
	C139.609192,87.922096 137.481049,90.478157 133.096252,91.018387 
	C135.035095,88.577896 137.195709,86.363770 139.630585,83.952095 
z"/>
<path fill="#61CBB1" opacity="1.000000" stroke="none" 
	d="
M112.857620,104.964157 
	C111.467712,105.318718 110.077812,105.673279 107.960167,106.044495 
	C105.551750,106.418266 103.871071,106.775391 101.912582,106.801941 
	C101.421852,97.683411 101.208931,88.895439 101.241043,79.999672 
	C101.648659,79.818558 101.811256,79.745239 102.253983,79.692955 
	C103.017212,79.455719 103.500313,79.197456 104.323669,78.946884 
	C105.493660,78.378609 106.323395,77.802628 107.168533,77.251495 
	C107.183929,77.276344 107.236244,77.302429 107.602356,77.319107 
	C109.968277,76.508865 111.968086,75.681953 113.967888,74.855042 
	C114.311928,81.205803 114.688393,87.555061 114.983650,93.908096 
	C115.097908,96.366638 115.028168,98.833733 114.859283,102.003616 
	C114.070076,103.461586 113.463852,104.212868 112.857620,104.964157 
z"/>
<path fill="#D8EEE9" opacity="1.000000" stroke="none" 
	d="
M101.440948,52.234871 
	C105.744316,51.467113 109.880157,50.905140 114.449707,50.429909 
	C119.707748,51.514366 119.769569,55.511116 120.053741,59.587101 
	C119.531357,59.993519 119.297852,59.998760 118.900635,59.676468 
	C115.092079,55.594116 111.083488,56.909363 107.256615,58.783035 
	C103.842751,60.454494 100.639748,62.556602 97.384163,64.064880 
	C97.902023,60.679695 98.379402,57.698292 98.856789,54.716888 
	C99.662338,53.958145 100.467888,53.199398 101.440948,52.234871 
z"/>
<path fill="#C5E5DE" opacity="1.000000" stroke="none" 
	d="
M119.064346,60.004002 
	C119.297852,59.998760 119.531357,59.993519 120.118729,59.998497 
	C120.960327,62.102726 121.448036,64.196732 121.734978,66.802368 
	C121.312950,67.524979 121.147308,67.773102 121.037285,68.058357 
	C121.037285,68.058357 121.079918,68.025803 120.753433,68.070724 
	C118.611122,69.214920 116.871284,70.482025 114.951332,71.351318 
	C113.776375,71.883316 112.324928,71.804672 110.998825,72.000130 
	C111.000000,72.000000 110.999695,72.002174 111.009514,71.616776 
	C111.346352,69.486496 111.673370,67.741615 112.282745,65.821098 
	C114.731522,63.764969 116.897934,61.884483 119.064346,60.004002 
z"/>
<path fill="#D7EDE9" opacity="1.000000" stroke="none" 
	d="
M113.211136,104.983612 
	C113.463852,104.212868 114.070076,103.461586 114.878159,102.488678 
	C118.432549,100.540947 121.785088,98.814835 125.455696,96.974503 
	C125.572754,98.036606 125.371750,99.212929 125.084732,100.696274 
	C124.998718,101.003288 124.967705,101.032951 124.967705,101.032951 
	C122.234474,102.283722 119.501244,103.534492 116.768021,104.785263 
	C116.949738,105.193993 117.131462,105.602722 117.313179,106.011452 
	C116.063667,105.675323 114.814156,105.339188 113.211136,104.983612 
z"/>
<path fill="#D7EDE8" opacity="1.000000" stroke="none" 
	d="
M110.997665,72.000259 
	C112.324928,71.804672 113.776375,71.883316 114.951332,71.351318 
	C116.871284,70.482025 118.611122,69.214920 120.757843,68.097183 
	C118.855751,70.170555 116.622780,72.262383 114.178848,74.604630 
	C111.968086,75.681953 109.968277,76.508865 107.621429,76.967331 
	C108.515472,75.066010 109.756569,73.533134 110.997665,72.000259 
z"/>
<path fill="#D7EDE8" opacity="1.000000" stroke="none" 
	d="
M121.292351,68.021797 
	C121.147308,67.773102 121.312950,67.524979 121.717224,67.183640 
	C121.782631,67.363937 121.665024,67.674591 121.292351,68.021797 
z"/>
<path fill="#D1E6E2" opacity="1.000000" stroke="none" 
	d="
M81.285591,60.967712 
	C80.930962,61.403580 80.576332,61.839447 79.979004,62.626938 
	C79.464867,63.027981 79.270432,63.182079 78.854599,63.800838 
	C76.718872,65.801056 74.881538,67.441284 72.713013,69.189392 
	C71.625839,70.515297 70.869843,71.733315 69.791824,72.950272 
	C69.255165,72.944374 69.040535,72.939545 68.864319,72.589485 
	C67.892723,71.174004 66.882706,70.103760 65.872688,69.033516 
	C70.353264,65.110344 74.833832,61.187168 79.837242,57.443398 
	C80.668579,58.737770 80.977089,59.852741 81.285591,60.967712 
z"/>
<path fill="#CFEAE5" opacity="1.000000" stroke="none" 
	d="
M78.978416,68.000809 
	C83.579628,65.279190 88.180832,62.557575 93.495331,59.854916 
	C94.466347,59.920628 94.724083,59.967381 94.990219,60.385986 
	C95.001984,61.501720 95.005333,62.245594 94.756226,62.991337 
	C94.335541,62.995060 94.167313,62.996922 93.775528,62.877068 
	C92.694153,63.833881 91.836327,64.912415 90.679077,65.895050 
	C89.044838,66.182678 87.023994,66.150009 86.494835,67.022270 
	C84.290382,70.656075 81.431015,70.231758 78.250748,68.794418 
	C78.427185,68.277718 78.663841,68.090111 78.978416,68.000809 
z"/>
<path fill="#C8E6E0" opacity="1.000000" stroke="none" 
	d="
M95.008682,62.989471 
	C95.005333,62.245594 95.001984,61.501720 95.000488,60.375465 
	C95.002357,59.993088 95.018745,59.969662 95.140076,59.871021 
	C95.415497,59.454178 95.329659,59.198715 94.877998,58.889969 
	C94.752121,58.773941 94.482994,58.562271 94.482994,58.562271 
	C95.734619,57.358295 96.986252,56.154320 98.547333,54.833618 
	C98.379402,57.698292 97.902023,60.679695 97.316689,64.039612 
	C97.208740,64.418121 97.157631,64.285942 96.898041,64.099518 
	C96.095192,63.605217 95.551933,63.297344 95.008682,62.989471 
z"/>
<path fill="#536D8B" opacity="1.000000" stroke="none" 
	d="
M79.024185,67.573044 
	C78.663841,68.090111 78.427185,68.277718 78.038864,69.083496 
	C76.527298,70.022476 75.245331,70.441574 73.864441,70.630493 
	C73.525085,69.960716 73.284645,69.521111 73.044205,69.081505 
	C74.881538,67.441284 76.718872,65.801056 78.824585,63.932495 
	C79.085304,64.851204 79.077629,65.998245 79.024185,67.573044 
z"/>
<path fill="#3B5063" opacity="1.000000" stroke="none" 
	d="
M84.097214,27.834822 
	C84.672958,28.055843 85.248703,28.276865 86.013031,28.746651 
	C86.168091,29.181213 86.134567,29.367008 85.803757,29.779137 
	C85.105835,29.716282 84.705193,29.427092 84.069290,29.198599 
	C83.532166,29.387192 83.268776,29.570381 82.739838,29.904453 
	C82.224068,30.017384 82.012321,30.034721 81.866577,29.719063 
	C81.970207,28.936510 82.007828,28.486952 82.329910,28.020809 
	C82.804146,27.996162 82.993935,27.988102 83.412247,27.944660 
	C83.640770,27.909281 84.097214,27.834822 84.097214,27.834822 
z"/>
<path fill="#607A95" opacity="1.000000" stroke="none" 
	d="
M84.304565,29.137903 
	C84.705193,29.427092 85.105835,29.716282 85.749176,30.057020 
	C86.086029,30.743385 86.180183,31.378202 86.383560,32.310661 
	C86.241692,32.693813 85.990623,32.779316 85.350410,32.946648 
	C84.961273,33.028473 84.949341,33.005001 84.917793,32.728653 
	C84.623444,31.972908 84.360641,31.493509 84.125282,30.700619 
	C84.203331,29.970720 84.253944,29.554312 84.304565,29.137903 
z"/>
<path fill="#C8E6E0" opacity="1.000000" stroke="none" 
	d="
M94.992081,60.003609 
	C94.724083,59.967381 94.466347,59.920628 93.822029,59.790665 
	C93.650032,59.433285 93.864632,59.159119 94.281113,58.723610 
	C94.482994,58.562271 94.752121,58.773941 94.877274,59.130913 
	C95.002434,59.487885 95.018745,59.969662 95.018745,59.969662 
	C95.018745,59.969662 95.002357,59.993088 94.992081,60.003609 
z"/>
<path fill="#CFE9E4" opacity="1.000000" stroke="none" 
	d="
M42.197872,71.707199 
	C44.420746,72.217079 46.643623,72.726959 49.272179,73.349960 
	C49.677856,73.463074 49.476810,73.718178 49.220177,73.942215 
	C48.954430,75.497169 48.945312,76.828094 48.936199,78.159019 
	C46.869232,77.476578 44.802265,76.794136 42.398460,75.981636 
	C42.061623,75.851578 42.004742,75.487770 41.991371,74.879379 
	C42.051289,73.416389 42.124580,72.561790 42.197872,71.707199 
z"/>
<path fill="#BDDDDA" opacity="1.000000" stroke="none" 
	d="
M42.143585,71.742798 
	C42.124580,72.561790 42.051289,73.416389 41.957550,74.698395 
	C39.559910,73.299866 37.182720,71.473907 34.639038,69.330276 
	C36.094116,69.434158 37.715687,69.855713 39.809006,70.783798 
	C40.890900,71.495674 41.501049,71.701012 42.111198,71.906357 
	C42.111198,71.906357 42.089298,71.778389 42.143585,71.742798 
z"/>
<path fill="#E4F3F0" opacity="1.000000" stroke="none" 
	d="
M49.057030,78.320541 
	C48.945312,76.828094 48.954430,75.497169 49.624397,73.899956 
	C53.850155,74.065231 57.415062,74.496788 60.987305,75.316628 
	C60.977074,76.739128 60.959499,77.773338 60.941925,78.807556 
	C60.941925,78.807556 60.499451,78.872238 60.230827,78.482193 
	C57.784420,74.948540 56.074234,74.922951 54.955734,78.842941 
	C54.955734,78.842941 54.497375,78.916428 54.195488,78.556000 
	C53.061192,77.187080 52.228779,76.178604 50.769276,74.410393 
	C50.339619,76.620361 50.134449,77.675667 49.929276,78.730965 
	C49.645493,78.748543 49.395020,78.665573 49.057030,78.320541 
z"/>
<path fill="#C6E6DF" opacity="1.000000" stroke="none" 
	d="
M50.303879,78.831879 
	C50.134449,77.675667 50.339619,76.620361 50.769276,74.410393 
	C52.228779,76.178604 53.061192,77.187080 53.966698,78.516907 
	C53.864872,78.889549 53.689953,78.940865 53.254219,79.074478 
	C52.221760,79.082115 51.450119,79.007454 50.303879,78.831879 
z"/>
<path fill="#C5E5DE" opacity="1.000000" stroke="none" 
	d="
M61.344460,78.855652 
	C60.959499,77.773338 60.977074,76.739128 61.174629,74.967728 
	C63.845043,73.798599 66.335472,73.366661 68.825905,72.934723 
	C69.040535,72.939545 69.255165,72.944374 70.098717,72.843544 
	C71.806206,72.112144 72.884781,71.486404 73.963356,70.860672 
	C75.245331,70.441574 76.527298,70.022476 78.021156,69.314301 
	C81.431015,70.231758 84.290382,70.656075 86.494835,67.022270 
	C87.023994,66.150009 89.044838,66.182678 90.689049,65.903290 
	C90.998444,66.007416 91.011993,66.027306 91.006638,66.416733 
	C91.060852,67.585907 91.120422,68.365646 91.097977,69.126175 
	C91.015968,69.106972 91.173340,69.170052 90.870453,69.154778 
	C86.920959,69.856537 90.273293,71.663925 89.543236,72.922264 
	C86.401711,72.940979 83.698135,72.940979 80.070938,72.940979 
	C81.525650,74.957497 82.266663,75.984688 83.003685,77.005959 
	C82.999695,77.000038 82.994041,76.986961 82.974663,77.356781 
	C81.773109,78.773659 80.643440,79.888977 79.394745,80.849564 
	C78.001625,81.921249 76.500374,82.852364 74.747849,83.943039 
	C73.690910,84.375633 72.932297,84.709862 71.813515,85.024460 
	C69.940071,84.607353 68.426804,84.209862 67.510788,83.969254 
	C65.842628,86.568527 64.422089,88.781975 62.956684,90.680893 
	C62.607788,89.577171 62.303753,88.787971 61.999260,87.538239 
	C61.940090,85.523842 61.881374,83.969978 61.822662,82.416122 
	C61.822662,82.416122 61.818573,82.174309 62.316021,82.087112 
	C63.802479,81.969612 65.106339,82.318283 65.706383,81.819778 
	C66.596497,81.080299 66.987991,79.740631 67.591736,78.656448 
	C66.449684,78.666931 65.307648,78.677406 64.165604,78.687881 
	C63.359398,78.759834 62.553196,78.831795 61.344460,78.855652 
M75.275345,76.426971 
	C75.461594,76.649727 75.681931,76.831078 76.048096,77.410774 
	C76.133934,77.536758 76.194023,77.711220 76.313156,77.774529 
	C76.423325,77.833061 76.596756,77.772530 76.742325,77.764442 
	C76.518204,76.946312 76.294075,76.128189 76.069946,75.310059 
	C75.724098,75.564034 75.378258,75.818008 75.275345,76.426971 
z"/>
<path fill="#CAE8E2" opacity="1.000000" stroke="none" 
	d="
M63.001541,90.995422 
	C64.422089,88.781975 65.842628,86.568527 67.510788,83.969254 
	C68.426804,84.209862 69.940071,84.607353 71.761444,85.340286 
	C72.012802,86.098740 71.956062,86.521744 71.595413,87.081039 
	C66.316246,90.585678 62.847218,95.012672 61.467419,101.177292 
	C61.168102,101.597702 61.035603,101.859848 60.935005,102.138115 
	C60.693649,98.611145 60.452290,95.084175 60.538689,91.279480 
	C61.578144,90.999641 62.289845,90.997528 63.001541,90.995422 
z"/>
<path fill="#E0F1EE" opacity="1.000000" stroke="none" 
	d="
M70.112808,117.955116 
	C69.906227,117.877930 69.699654,117.800735 69.110023,117.456848 
	C68.575523,117.074867 68.408463,116.990417 68.225800,116.936813 
	C68.040169,116.894142 67.854546,116.851479 67.392159,116.737785 
	C66.428452,115.968246 65.741493,115.269722 65.279121,114.214340 
	C65.999947,112.899109 66.496193,111.940750 67.220757,111.245895 
	C68.381836,113.246010 69.314606,114.982628 70.247375,116.719238 
	C70.656044,116.509880 71.064720,116.300522 71.473396,116.091171 
	C71.267410,114.320930 71.298050,112.473518 70.756363,110.812782 
	C70.482483,109.973137 69.173500,109.471123 68.332535,108.816444 
	C67.892334,109.547386 67.452141,110.278328 66.774460,110.739990 
	C66.756569,108.938141 66.976173,107.405556 67.524094,105.963730 
	C69.568008,106.677139 71.283623,107.299782 73.325439,108.016891 
	C74.096176,108.196251 74.540710,108.281128 75.173622,108.592537 
	C76.566544,108.921631 77.771088,109.024193 79.352249,109.119232 
	C80.477905,109.176361 81.226959,109.241028 81.978592,109.593842 
	C81.989464,110.266090 81.997749,110.650208 81.673141,111.029892 
	C80.896507,111.018799 80.452774,111.012131 79.883102,111.103836 
	C79.576019,111.510651 79.635933,111.780502 79.947868,112.355156 
	C79.958855,113.663071 79.958855,114.627625 79.958855,114.781769 
	C78.005325,113.190247 75.806961,111.399277 73.608604,109.608299 
	C73.204521,109.985504 72.800446,110.362717 72.396362,110.739929 
	C72.621040,113.155579 72.845711,115.571220 72.700401,117.989243 
	C71.591209,117.979454 70.852013,117.967285 70.112808,117.955116 
z"/>
<path fill="#C7E7E0" opacity="1.000000" stroke="none" 
	d="
M66.992447,110.982384 
	C66.496193,111.940750 65.999947,112.899109 65.161636,113.941315 
	C63.534340,110.323357 62.249100,106.621559 60.949432,102.528931 
	C61.035603,101.859848 61.168102,101.597702 61.705811,101.431549 
	C63.784668,102.965279 65.490219,104.419128 67.195778,105.872978 
	C66.976173,107.405556 66.756569,108.938141 66.768013,110.734863 
	C66.999054,110.999001 66.992439,110.982384 66.992447,110.982384 
z"/>
<path fill="#C4E5DE" opacity="1.000000" stroke="none" 
	d="
M64.068695,79.012779 
	C65.307648,78.677406 66.449684,78.666931 67.591736,78.656448 
	C66.987991,79.740631 66.596497,81.080299 65.706383,81.819778 
	C65.106339,82.318283 63.802479,81.969612 62.399956,82.000061 
	C62.648220,81.112694 63.310005,80.225182 64.068695,79.012779 
z"/>
<path fill="#C5E5DE" opacity="1.000000" stroke="none" 
	d="
M55.379219,78.892715 
	C56.074234,74.922951 57.784420,74.948540 60.009640,78.449493 
	C58.638954,78.852051 57.220825,78.897270 55.379219,78.892715 
z"/>
<path fill="#C4E5DE" opacity="1.000000" stroke="none" 
	d="
M61.495407,82.610245 
	C61.881374,83.969978 61.940090,85.523842 61.628246,87.635529 
	C60.685776,88.696770 60.113865,89.200180 59.541954,89.703598 
	C60.084023,87.403854 60.626087,85.104111 61.495407,82.610245 
z"/>
<path fill="#C7E6DF" opacity="1.000000" stroke="none" 
	d="
M59.659698,89.911888 
	C60.113865,89.200180 60.685776,88.696770 61.628700,88.096069 
	C62.303753,88.787971 62.607788,89.577171 62.956680,90.680893 
	C62.289845,90.997528 61.578144,90.999641 60.511040,91.003502 
	C60.061665,90.696503 59.935600,90.401482 59.659698,89.911888 
z"/>
<path fill="#C7E6DF" opacity="1.000000" stroke="none" 
	d="
M132.351166,109.016602 
	C134.032059,106.644035 136.004333,104.162575 138.095779,101.785965 
	C138.229782,101.633682 139.285675,102.292679 139.990143,102.881653 
	C139.148743,103.954178 138.229935,104.719315 137.156158,105.745415 
	C135.557465,106.981560 134.113754,107.956726 132.351166,109.016602 
z"/>
<path fill="#202A34" opacity="1.000000" stroke="none" 
	d="
M83.183723,27.980042 
	C82.993935,27.988102 82.804146,27.996162 82.093460,27.994249 
	C81.572563,27.984278 81.099442,27.945166 81.099442,27.945166 
	C81.099442,27.945166 81.019867,27.973404 81.055374,27.634953 
	C81.086128,26.684601 81.081383,26.072697 81.076645,25.460793 
	C81.976181,25.740623 82.875732,26.020454 83.644867,26.739309 
	C83.272812,27.391356 83.162575,27.658590 83.183723,27.980042 
z"/>
<path fill="#293747" opacity="1.000000" stroke="none" 
	d="
M80.819244,25.271263 
	C81.081383,26.072697 81.086128,26.684601 81.080231,27.600828 
	C80.696243,27.096424 80.322899,26.287695 79.975815,25.125950 
	C80.188667,24.875864 80.375252,24.978800 80.819244,25.271263 
z"/>
<path fill="#607A95" opacity="1.000000" stroke="none" 
	d="
M83.412247,27.944660 
	C83.162575,27.658590 83.272812,27.391356 83.702423,27.058172 
	C83.890396,26.938011 84.016876,27.381685 84.057045,27.608253 
	C84.097214,27.834822 83.640770,27.909281 83.412247,27.944660 
z"/>
<path fill="#C6E5DF" opacity="1.000000" stroke="none" 
	d="
M126.240685,111.892715 
	C126.154350,110.611023 126.328247,109.233681 126.502151,107.856331 
	C127.010300,108.440414 127.518456,109.024490 128.060150,109.952545 
	C127.562767,110.796692 127.031845,111.296875 126.240685,111.892715 
z"/>
<path fill="#D5EDE7" opacity="1.000000" stroke="none" 
	d="
M70.322113,118.235550 
	C70.852013,117.967285 71.591209,117.979454 73.111473,117.993080 
	C77.747620,118.498276 81.602699,119.002014 85.457787,119.505745 
	C85.872910,119.063774 86.288033,118.621803 86.703148,118.179832 
	C85.137444,115.797997 83.571739,113.416153 82.006042,111.034317 
	C81.997749,110.650208 81.989464,110.266090 82.346603,109.515358 
	C83.462448,109.162262 84.212860,109.175789 85.089676,109.488441 
	C88.497139,109.362358 91.778198,108.937141 95.462509,108.416809 
	C97.973984,107.925301 100.082184,107.528908 102.190392,107.132515 
	C103.871071,106.775391 105.551750,106.418266 107.600815,106.086922 
	C106.842529,106.998932 105.715866,107.885178 104.097931,109.032166 
	C103.372208,109.480568 103.190285,109.709900 103.060898,109.980911 
	C103.052223,110.426483 103.043549,110.872055 103.017715,111.658600 
	C103.000549,111.999580 102.979980,112.012306 102.708801,111.776321 
	C98.106461,109.117653 94.697655,110.059654 93.666481,113.186279 
	C91.385796,112.714371 89.198364,112.261757 86.781967,111.761772 
	C87.119621,119.644180 87.168396,119.649963 93.061829,117.527321 
	C93.684372,117.303101 94.662010,117.881699 95.411949,118.225281 
	C99.136002,119.931442 102.452576,118.705299 103.990372,115.004211 
	C104.002396,114.996178 104.025131,114.975586 104.025131,114.975586 
	C105.728951,118.692703 108.316223,117.082909 110.961075,116.291595 
	C114.231117,115.313210 117.608040,114.692017 121.212997,114.168381 
	C119.220009,115.564056 116.952797,116.707848 114.340652,117.967285 
	C109.266853,119.028122 104.537987,119.973312 99.401764,121.000229 
	C93.652328,121.277328 88.310249,121.472687 82.508362,121.632965 
	C78.209518,120.570580 74.370468,119.543282 70.322113,118.235550 
z"/>
<path fill="#C6E5DE" opacity="1.000000" stroke="none" 
	d="
M68.300446,117.069885 
	C68.408463,116.990417 68.575523,117.074867 68.829208,117.282005 
	C68.713867,117.421494 68.528419,117.364525 68.300446,117.069885 
z"/>
<path fill="#C6D577" opacity="1.000000" stroke="none" 
	d="
M327.699524,86.744339 
	C318.116760,92.911743 308.977570,89.243843 307.354645,78.540268 
	C306.698303,74.211464 306.908447,69.535606 307.794250,65.238205 
	C309.191101,58.461025 313.295807,55.673817 319.870728,55.804947 
	C326.019318,55.927574 329.756927,58.919300 331.192017,65.590897 
	C332.760956,72.884476 332.911255,80.115189 327.699524,86.744339 
z"/>
<path fill="#C0E0DA" opacity="1.000000" stroke="none" 
	d="
M58.887005,66.995209 
	C54.978832,67.762703 51.450783,68.692680 47.887466,68.856758 
	C45.226170,68.979301 43.653236,67.413643 44.452553,64.284737 
	C45.186893,61.410179 45.979465,58.466919 46.077057,55.531677 
	C46.249817,50.335629 49.770298,49.694054 53.641857,49.230835 
	C53.967926,49.191822 54.513729,49.076057 54.598930,49.215305 
	C57.129200,53.350697 59.912163,57.379379 61.892548,61.768990 
	C62.375931,62.840431 60.203388,65.110100 58.887005,66.995209 
z"/>
<path fill="#C0DFD9" opacity="1.000000" stroke="none" 
	d="
M62.544106,48.237709 
	C61.544296,46.352581 59.893353,44.370651 60.332504,43.126438 
	C61.117210,40.903191 62.828716,37.941498 64.748413,37.399918 
	C69.130508,36.163647 73.872627,36.203533 78.316200,35.740860 
	C80.429741,41.822674 77.705894,50.752155 72.976921,53.641190 
	C72.040741,54.213120 70.093033,54.032497 69.094872,53.416344 
	C66.847450,52.029026 64.902687,50.151405 62.544106,48.237709 
z"/>
<path fill="#BEDDD8" opacity="1.000000" stroke="none" 
	d="
M29.392075,47.687389 
	C32.698490,45.834435 35.677280,44.200565 38.688927,42.548676 
	C40.172302,44.275402 41.445961,45.538471 42.435837,46.994473 
	C43.008907,47.837399 43.708858,49.324474 43.351402,49.950333 
	C41.134434,53.831894 38.699375,57.596992 36.147743,61.269459 
	C35.813847,61.750019 34.181721,61.865669 33.519524,61.493835 
	C29.222525,59.081028 27.256462,52.846348 29.392075,47.687389 
z"/>
<path fill="#BEDDD7" opacity="1.000000" stroke="none" 
	d="
M70.912727,19.179247 
	C72.767776,21.410786 74.622833,23.642326 77.169624,26.705999 
	C70.938194,29.214958 65.940788,31.227062 60.755970,33.314621 
	C59.354843,31.633158 58.107960,30.136799 56.775928,28.538254 
	C58.665306,25.390167 60.341915,22.326422 62.319729,19.471331 
	C62.888248,18.650637 64.325813,18.431952 65.692078,18.394451 
	C67.650398,18.960852 69.281563,19.070049 70.912727,19.179247 
z"/>
<path fill="#BAD9D4" opacity="1.000000" stroke="none" 
	d="
M35.323811,27.021076 
	C38.968563,28.855415 44.124199,29.477871 41.940063,35.801426 
	C40.966038,38.621445 39.504566,40.300346 36.245655,40.197929 
	C34.115982,40.131001 31.968502,40.630695 29.438438,40.518799 
	C31.139856,35.781033 33.231834,31.401054 35.323811,27.021076 
z"/>
<path fill="#BDDDD8" opacity="1.000000" stroke="none" 
	d="
M54.987072,17.220066 
	C54.841080,19.496574 55.500309,22.356030 54.368759,23.919037 
	C52.459007,26.556973 49.414719,28.373549 45.506767,31.664663 
	C44.307228,27.556925 43.605549,25.154076 43.361217,22.360931 
	C44.976524,21.615976 46.184765,21.373978 47.282379,20.884113 
	C49.878574,19.725424 52.422195,18.448929 54.987072,17.220066 
z"/>
<path fill="#111413" opacity="1.000000" stroke="none" 
	d="
M68.864319,72.589485 
	C66.335472,73.366661 63.845043,73.798599 61.167290,74.579437 
	C57.415062,74.496788 53.850155,74.065231 49.881027,73.675919 
	C49.476810,73.718178 49.677856,73.463074 49.710510,73.305733 
	C54.879227,71.826195 60.015285,70.504005 65.512016,69.107666 
	C66.882706,70.103760 67.892723,71.174004 68.864319,72.589485 
z"/>
<path fill="#0E1010" opacity="1.000000" stroke="none" 
	d="
M55.014805,16.820896 
	C52.422195,18.448929 49.878574,19.725424 47.282379,20.884113 
	C46.184765,21.373978 44.976524,21.615976 43.435081,22.037739 
	C42.428501,21.520475 41.181927,20.780939 41.282539,20.376694 
	C41.986130,17.549665 52.334316,14.662933 55.014805,16.820896 
z"/>
<path fill="#0A0C0C" opacity="1.000000" stroke="none" 
	d="
M34.943497,26.974834 
	C33.231834,31.401054 31.139856,35.781033 29.025089,40.555984 
	C28.331686,40.422573 27.167299,39.969727 27.072985,39.353188 
	C26.572561,36.081890 31.113876,28.761976 34.943497,26.974834 
z"/>
<path fill="#607A95" opacity="1.000000" stroke="none" 
	d="
M83.035156,50.749725 
	C83.189209,48.303860 83.343269,45.857994 83.497322,43.412128 
	C84.002563,43.443142 84.507797,43.474159 85.013031,43.505177 
	C84.264969,46.624748 89.280746,49.614876 84.145668,52.730499 
	C83.367905,52.011074 83.201530,51.380398 83.035156,50.749725 
z"/>
<path fill="#607A95" opacity="1.000000" stroke="none" 
	d="
M81.542831,60.785862 
	C80.977089,59.852741 80.668579,58.737770 80.148453,57.332260 
	C80.254440,56.546432 80.572052,56.051136 81.291924,55.258259 
	C82.539436,54.653137 83.384682,54.345596 84.229935,54.038055 
	C83.419975,56.226707 82.610023,58.415359 81.542831,60.785862 
z"/>
<path fill="#405368" opacity="1.000000" stroke="none" 
	d="
M84.069290,29.198599 
	C84.253944,29.554312 84.203331,29.970720 84.121811,30.986710 
	C84.377052,32.059196 84.663193,32.532097 84.949341,33.005001 
	C84.949341,33.005001 84.961273,33.028473 84.964470,33.043251 
	C85.026039,33.810608 85.084412,34.563187 85.102539,36.007927 
	C85.028030,37.125088 84.993767,37.550095 84.959503,37.975101 
	C84.120537,37.791245 83.281563,37.607388 82.494415,36.863403 
	C82.712112,34.138466 82.877983,31.973663 83.043861,29.808859 
	C83.268776,29.570381 83.532166,29.387192 84.069290,29.198599 
z"/>
<path fill="#5C6B68" opacity="1.000000" stroke="none" 
	d="
M70.883766,18.894970 
	C69.281563,19.070049 67.650398,18.960852 65.979622,18.494282 
	C65.983940,17.663055 66.027863,17.189199 66.093773,16.478275 
	C67.725983,17.209326 69.290398,17.910009 70.883766,18.894970 
z"/>
<path fill="#25313E" opacity="1.000000" stroke="none" 
	d="
M82.739838,29.904453 
	C82.877983,31.973663 82.712112,34.138466 82.304291,36.597607 
	C81.894760,34.847099 81.727173,32.802254 81.557281,30.399235 
	C81.554977,30.041059 81.800568,30.052057 81.800568,30.052057 
	C82.012321,30.034721 82.224068,30.017384 82.739838,29.904453 
z"/>
<path fill="#E7F4F1" opacity="1.000000" stroke="none" 
	d="
M84.148354,53.781620 
	C83.384682,54.345596 82.539436,54.653137 81.353989,54.963345 
	C81.490143,53.686985 81.966492,52.407955 82.738998,50.939327 
	C83.201530,51.380398 83.367905,52.011074 83.811752,52.814602 
	C84.081749,53.166695 84.074265,53.345940 84.148354,53.781620 
z"/>
<path fill="#607A95" opacity="1.000000" stroke="none" 
	d="
M85.229454,37.937119 
	C84.993767,37.550095 85.028030,37.125088 85.120239,36.385754 
	C85.590080,36.401489 86.001984,36.731548 86.413879,37.061611 
	C86.109055,37.340782 85.804230,37.619957 85.229454,37.937119 
z"/>
<path fill="#202A37" opacity="1.000000" stroke="none" 
	d="
M43.618828,59.041924 
	C43.354103,58.771038 43.245556,58.365303 43.194969,57.952465 
	C43.185715,57.876949 43.412346,57.772526 43.530083,57.681442 
	C43.618366,58.089172 43.706650,58.496906 43.618828,59.041924 
z"/>
<path fill="#293747" opacity="1.000000" stroke="none" 
	d="
M81.866577,29.719063 
	C81.800568,30.052057 81.554977,30.041059 81.433655,30.040283 
	C81.217247,29.577644 81.122147,29.115784 81.063248,28.299545 
	C81.099442,27.945166 81.572563,27.984278 81.809006,28.010838 
	C82.007828,28.486952 81.970207,28.936510 81.866577,29.719063 
z"/>
<path fill="#CFE9E4" opacity="1.000000" stroke="none" 
	d="
M41.954247,71.604813 
	C41.501049,71.701012 40.890900,71.495674 40.051468,71.045319 
	C40.480556,70.967957 41.138927,71.135620 41.954247,71.604813 
z"/>
<path fill="#82CD9C" opacity="1.000000" stroke="none" 
	d="
M187.757385,49.561440 
	C190.467178,61.716076 182.434814,69.715691 170.715469,66.784393 
	C169.504440,66.481491 167.984421,64.378738 167.919739,63.047371 
	C167.621231,56.903740 167.654053,50.732098 167.904800,44.584236 
	C167.952164,43.423458 169.362183,41.551975 170.426804,41.322353 
	C177.770798,39.738403 183.915741,42.690857 187.757385,49.561440 
z"/>
<path fill="#B1D282" opacity="1.000000" stroke="none" 
	d="
M271.127625,56.950634 
	C280.958954,52.627087 288.649841,59.224449 287.452606,70.806625 
	C280.450592,70.806625 273.417236,70.806625 266.119141,70.806625 
	C265.351776,65.202194 266.859283,60.776772 271.127625,56.950634 
z"/>
<path fill="#D5EDE7" opacity="1.000000" stroke="none" 
	d="
M103.011711,111.992798 
	C103.348999,112.763771 103.675117,113.541542 104.013184,114.647446 
	C104.025131,114.975586 104.002396,114.996178 103.765892,114.766815 
	C103.346252,113.695740 103.163116,112.854019 102.979980,112.012306 
	C102.979980,112.012306 103.000549,111.999580 103.011711,111.992798 
z"/>
<path fill="#D7EDE9" opacity="1.000000" stroke="none" 
	d="
M125.015930,100.990524 
	C125.178009,101.308479 125.322861,101.639198 125.467720,101.969910 
	C125.317924,101.784874 125.168121,101.599831 124.993011,101.223877 
	C124.967705,101.032951 124.998718,101.003288 125.015930,100.990524 
z"/>
<path fill="#C6E5DF" opacity="1.000000" stroke="none" 
	d="
M103.241257,109.855896 
	C103.190285,109.709900 103.372208,109.480568 103.793930,109.176422 
	C103.834923,109.317146 103.648399,109.540794 103.241257,109.855896 
z"/>
<path fill="#5BCAB4" opacity="1.000000" stroke="none" 
	d="
M101.912582,106.801941 
	C100.082184,107.528908 97.973984,107.925301 95.050957,108.328186 
	C91.820457,108.476372 89.404778,108.618073 86.991646,108.306168 
	C86.953766,99.052032 86.913338,90.251488 87.180695,81.296097 
	C88.632835,80.975861 89.777176,80.810478 91.286926,80.685181 
	C93.101532,80.455818 94.550743,80.186363 96.415802,79.945160 
	C98.219780,80.018112 99.607903,80.062790 100.996017,80.107475 
	C101.208931,88.895439 101.421852,97.683411 101.912582,106.801941 
z"/>
<path fill="#C4E5DE" opacity="1.000000" stroke="none" 
	d="
M95.999947,79.916901 
	C94.550743,80.186363 93.101532,80.455818 91.271683,80.368340 
	C89.942589,79.604355 89.007637,79.161438 88.042679,78.798233 
	C86.369591,78.168472 84.677917,77.588066 82.994041,76.986961 
	C82.994041,76.986961 82.999695,77.000038 83.041245,76.617256 
	C85.406342,75.498001 87.729904,74.761536 90.388893,73.967003 
	C91.816772,73.615456 92.909218,73.321976 94.012741,73.322762 
	C94.294868,74.210785 94.565926,74.804543 94.836990,75.398300 
	C95.077652,75.306946 95.318314,75.215591 95.558975,75.124229 
	C95.366768,74.413040 95.174553,73.701843 94.990234,72.995110 
	C94.998116,72.999573 94.989670,72.985588 95.332275,72.980774 
	C97.456879,72.981506 99.238884,72.987061 101.265320,72.988937 
	C101.509758,72.985252 101.998650,72.991150 102.059357,73.255341 
	C102.745140,73.341301 103.370216,73.163078 104.085571,72.649231 
	C106.319130,69.332115 108.604385,69.461472 110.999695,72.002174 
	C110.999695,72.002174 111.000000,72.000000 110.998833,72.000130 
	C109.756569,73.533134 108.515472,75.066010 107.255310,76.950653 
	C107.236244,77.302429 107.183929,77.276344 106.820465,77.200134 
	C105.632477,77.729012 104.807945,78.334106 103.983421,78.939194 
	C103.500313,79.197456 103.017212,79.455719 102.127975,79.399582 
	C99.686745,78.483284 97.228767,74.972145 95.999947,79.916901 
z"/>
<path fill="#C4E5DE" opacity="1.000000" stroke="none" 
	d="
M96.415802,79.945168 
	C97.228767,74.972145 99.686745,78.483284 101.847839,79.378555 
	C101.811256,79.745239 101.648659,79.818558 101.241043,79.999672 
	C99.607903,80.062790 98.219780,80.018112 96.415802,79.945168 
z"/>
<path fill="#C4E5DE" opacity="1.000000" stroke="none" 
	d="
M104.323669,78.946884 
	C104.807945,78.334106 105.632477,77.729012 106.805069,77.175293 
	C106.323395,77.802628 105.493660,78.378609 104.323669,78.946884 
z"/>
<path fill="#64CBB2" opacity="1.000000" stroke="none" 
	d="
M118.900635,59.676468 
	C116.897934,61.884483 114.731522,63.764969 111.921387,65.860748 
	C107.872169,67.471756 104.466675,68.867470 100.675369,70.245377 
	C98.510963,70.592964 96.732361,70.958359 94.586639,71.280052 
	C93.204124,70.547585 92.188736,69.858818 91.173340,69.170052 
	C91.173340,69.170052 91.015968,69.106972 91.421310,69.125504 
	C92.677788,68.469063 93.528908,67.794083 94.560669,67.051811 
	C94.741302,66.984520 95.047043,66.749687 95.313080,66.629990 
	C96.105286,65.768845 96.631462,65.027397 97.157631,64.285942 
	C97.157631,64.285942 97.208740,64.418121 97.276215,64.443390 
	C100.639748,62.556602 103.842751,60.454494 107.256615,58.783035 
	C111.083488,56.909363 115.092079,55.594116 118.900635,59.676468 
z"/>
<path fill="#D7EDE8" opacity="1.000000" stroke="none" 
	d="
M101.061180,70.263184 
	C104.466675,68.867470 107.872169,67.471756 111.639023,66.036392 
	C111.673370,67.741615 111.346352,69.486496 111.009514,71.616776 
	C108.604385,69.461472 106.319130,69.332115 103.752869,72.652527 
	C102.886154,72.991364 102.442398,72.991257 101.998650,72.991150 
	C101.998650,72.991150 101.509758,72.985252 101.265732,72.647156 
	C101.034859,71.627098 101.048019,70.945137 101.061180,70.263184 
z"/>
<path fill="#607A95" opacity="1.000000" stroke="none" 
	d="
M73.864441,70.630493 
	C72.884781,71.486404 71.806206,72.112144 70.420738,72.844604 
	C70.869843,71.733315 71.625839,70.515297 72.713013,69.189392 
	C73.284645,69.521111 73.525085,69.960716 73.864441,70.630493 
z"/>
<path fill="#C8E6E0" opacity="1.000000" stroke="none" 
	d="
M95.047043,66.749687 
	C95.047043,66.749687 94.741302,66.984520 94.206406,66.988052 
	C92.784996,66.670166 91.898499,66.348740 91.011993,66.027306 
	C91.011993,66.027306 90.998444,66.007416 90.988480,65.999176 
	C91.836327,64.912415 92.694153,63.833881 93.914627,63.176903 
	C94.533867,64.648865 94.790451,65.699280 95.047043,66.749687 
z"/>
<path fill="#D8EEE9" opacity="1.000000" stroke="none" 
	d="
M95.313072,66.629990 
	C94.790451,65.699280 94.533867,64.648865 94.138184,63.298618 
	C94.167313,62.996922 94.335541,62.995060 94.756226,62.991337 
	C95.551933,63.297344 96.095192,63.605217 96.898041,64.099518 
	C96.631462,65.027397 96.105286,65.768845 95.313072,66.629990 
z"/>
<path fill="#CFEAE5" opacity="1.000000" stroke="none" 
	d="
M95.140076,59.871021 
	C95.018745,59.969662 95.002434,59.487885 95.003159,59.246941 
	C95.329659,59.198715 95.415497,59.454178 95.140076,59.871021 
z"/>
<path fill="#536D8B" opacity="1.000000" stroke="none" 
	d="
M84.917793,32.728653 
	C84.663193,32.532097 84.377052,32.059196 84.094376,31.300201 
	C84.360641,31.493509 84.623444,31.972908 84.917793,32.728653 
z"/>
<path fill="#54C9B8" opacity="1.000000" stroke="none" 
	d="
M86.872910,81.450951 
	C86.913338,90.251488 86.953766,99.052032 86.656036,108.388397 
	C85.866341,109.012589 85.414810,109.100952 84.963272,109.189316 
	C84.212860,109.175789 83.462448,109.162262 82.344025,109.227219 
	C81.226959,109.241028 80.477905,109.176361 79.085922,108.888901 
	C77.290405,108.566078 76.137825,108.466042 74.985245,108.365997 
	C74.540710,108.281128 74.096176,108.196251 73.404671,107.612900 
	C73.987755,100.313255 75.708473,93.456497 71.899323,86.944748 
	C71.956062,86.521744 72.012802,86.098740 72.121613,85.359909 
	C72.932297,84.709862 73.690910,84.375633 75.144928,83.983765 
	C79.517860,83.101067 83.195381,82.276009 86.872910,81.450951 
z"/>
<path fill="#DCF0EB" opacity="1.000000" stroke="none" 
	d="
M87.180695,81.296097 
	C83.195381,82.276009 79.517860,83.101067 75.443260,83.885391 
	C76.500374,82.852364 78.001625,81.921249 79.394745,80.849564 
	C80.643440,79.888977 81.773109,78.773659 82.974663,77.356781 
	C84.677917,77.588066 86.369591,78.168472 88.042679,78.798233 
	C89.007637,79.161438 89.942589,79.604355 90.906281,80.328247 
	C89.777176,80.810478 88.632835,80.975861 87.180695,81.296097 
z"/>
<path fill="#CFEAE5" opacity="1.000000" stroke="none" 
	d="
M90.870453,69.154778 
	C92.188736,69.858818 93.204124,70.547585 94.591751,71.556084 
	C94.972542,72.245743 94.981110,72.615662 94.989670,72.985588 
	C94.989670,72.985588 94.998116,72.999573 94.745033,73.001083 
	C94.491951,73.002602 94.001671,73.028496 94.001671,73.028496 
	C92.909218,73.321976 91.816772,73.615456 90.371178,73.686440 
	C90.005753,73.277145 89.993469,73.090347 89.981178,72.903549 
	C90.273293,71.663925 86.920959,69.856537 90.870453,69.154778 
z"/>
<path fill="#DCF0EB" opacity="1.000000" stroke="none" 
	d="
M89.543236,72.922264 
	C89.993469,73.090347 90.005753,73.277145 90.035751,73.744499 
	C87.729904,74.761536 85.406342,75.498001 83.045227,76.623177 
	C82.266663,75.984688 81.525650,74.957497 80.070938,72.940979 
	C83.698135,72.940979 86.401711,72.940979 89.543236,72.922264 
z"/>
<path fill="#CFEAE5" opacity="1.000000" stroke="none" 
	d="
M91.006638,66.416733 
	C91.898499,66.348740 92.784996,66.670166 94.025772,67.055344 
	C93.528908,67.794083 92.677788,68.469063 91.503326,69.144714 
	C91.120422,68.365646 91.060852,67.585907 91.006638,66.416733 
z"/>
<path fill="#DCF0EB" opacity="1.000000" stroke="none" 
	d="
M75.032410,76.071983 
	C75.378258,75.818008 75.724098,75.564034 76.069946,75.310059 
	C76.294075,76.128189 76.518204,76.946312 76.742325,77.764442 
	C76.596756,77.772530 76.423325,77.833061 76.313156,77.774529 
	C76.194023,77.711220 76.133934,77.536758 75.878937,77.006821 
	C75.525276,76.373215 75.299492,76.196251 75.032410,76.071983 
z"/>
<path fill="#C4E5DE" opacity="1.000000" stroke="none" 
	d="
M75.153877,76.249481 
	C75.299492,76.196251 75.525276,76.373215 75.823059,76.786934 
	C75.681931,76.831078 75.461594,76.649727 75.153877,76.249481 
z"/>
<path fill="#52C9BC" opacity="1.000000" stroke="none" 
	d="
M71.595413,87.081039 
	C75.708473,93.456497 73.987755,100.313255 73.078461,107.518433 
	C71.283623,107.299782 69.568008,106.677139 67.524094,105.963730 
	C65.490219,104.419128 63.784668,102.965279 61.840721,101.257172 
	C62.847218,95.012672 66.316246,90.585678 71.595413,87.081039 
z"/>
<path fill="#C5E5DE" opacity="1.000000" stroke="none" 
	d="
M81.673141,111.029892 
	C83.571739,113.416153 85.137444,115.797997 86.703148,118.179832 
	C86.288033,118.621803 85.872910,119.063774 85.457787,119.505745 
	C81.602699,119.002014 77.747620,118.498276 73.481461,117.990700 
	C72.845711,115.571220 72.621040,113.155579 72.396362,110.739929 
	C72.800446,110.362717 73.204521,109.985504 73.608604,109.608299 
	C75.806961,111.399277 78.005325,113.190247 79.958855,114.781769 
	C79.958855,114.627625 79.958855,113.663071 79.968018,112.103752 
	C79.987801,111.341141 79.998421,111.173294 80.009041,111.005463 
	C80.452774,111.012131 80.896507,111.018799 81.673141,111.029892 
z"/>
<path fill="#C6E5DE" opacity="1.000000" stroke="none" 
	d="
M67.005493,111.004135 
	C67.452141,110.278328 67.892334,109.547386 68.332535,108.816444 
	C69.173500,109.471123 70.482483,109.973137 70.756363,110.812782 
	C71.298050,112.473518 71.267410,114.320930 71.473396,116.091171 
	C71.064720,116.300522 70.656044,116.509880 70.247375,116.719238 
	C69.314606,114.982628 68.381836,113.246010 67.220749,111.245895 
	C66.992439,110.982384 66.999054,110.999001 67.005493,111.004135 
z"/>
<path fill="#BFE3DC" opacity="1.000000" stroke="none" 
	d="
M75.173622,108.592529 
	C76.137825,108.466042 77.290405,108.566078 78.709305,108.896439 
	C77.771088,109.024193 76.566544,108.921631 75.173622,108.592529 
z"/>
<path fill="#D5EDE7" opacity="1.000000" stroke="none" 
	d="
M79.883102,111.103836 
	C79.998421,111.173294 79.987801,111.341141 79.957031,111.760384 
	C79.635933,111.780502 79.576019,111.510651 79.883102,111.103836 
z"/>
<path fill="#C5E5DE" opacity="1.000000" stroke="none" 
	d="
M102.708801,111.776321 
	C103.163116,112.854019 103.346252,113.695740 103.753876,114.774849 
	C102.452576,118.705299 99.136002,119.931442 95.411949,118.225281 
	C94.662010,117.881699 93.684372,117.303101 93.061829,117.527321 
	C87.168396,119.649963 87.119621,119.644180 86.781967,111.761772 
	C89.198364,112.261757 91.385796,112.714371 93.666481,113.186279 
	C94.697655,110.059654 98.106461,109.117653 102.708801,111.776321 
z"/>
<path fill="#BFE3DC" opacity="1.000000" stroke="none" 
	d="
M85.089676,109.488449 
	C85.414810,109.100952 85.866341,109.012589 86.653488,108.841995 
	C89.404778,108.618073 91.820457,108.476372 94.647690,108.423302 
	C91.778198,108.937141 88.497139,109.362358 85.089676,109.488449 
z"/>
<path fill="#C4E5DE" opacity="1.000000" stroke="none" 
	d="
M95.332275,72.980774 
	C94.981110,72.615662 94.972542,72.245743 94.958870,71.599785 
	C96.732361,70.958359 98.510963,70.592964 100.675369,70.245377 
	C101.048019,70.945137 101.034859,71.627098 101.021286,72.650833 
	C99.238884,72.987061 97.456879,72.981506 95.332275,72.980774 
z"/>
<path fill="#C4E5DE" opacity="1.000000" stroke="none" 
	d="
M94.012741,73.322762 
	C94.001671,73.028496 94.491951,73.002602 94.737152,72.996628 
	C95.174553,73.701843 95.366768,74.413040 95.558975,75.124229 
	C95.318314,75.215591 95.077652,75.306946 94.836990,75.398300 
	C94.565926,74.804543 94.294868,74.210785 94.012741,73.322762 
z"/>
<path fill="#C4E5DE" opacity="1.000000" stroke="none" 
	d="
M102.059357,73.255341 
	C102.442398,72.991257 102.886154,72.991364 103.662598,72.988159 
	C103.370216,73.163078 102.745140,73.341301 102.059357,73.255341 
z"/>
</svg>